<svg width="48" height="48" viewBox="0 0 48 48" fill="none" xmlns="http://www.w3.org/2000/svg">
<rect width="48" height="47.6" rx="23.8" fill="#7353BA"/>
<path d="M26.2202 29.2553C29.9869 27.429 32.8445 24.4152 34.6352 20.8395C35.1413 19.8416 35.8296 18.5775 36.3965 17.9389C35.7486 18.5043 34.4665 19.1763 33.4542 19.6752C29.8153 21.4464 26.8571 24.2148 25.019 27.7717C26.4422 23.6744 26.457 19.0721 24.9313 14.639C24.5264 13.4615 24.0675 11.9447 24 11C23.9393 11.9447 23.4804 13.4615 23.0755 14.6391C21.6392 18.812 21.4812 23.2536 22.9878 27.7717C21.157 24.2281 18.2052 21.4531 14.5525 19.6753C13.5335 19.1763 12.2581 18.5044 11.6103 17.9389C12.1771 18.5776 12.8655 19.8416 13.3716 20.8395C15.1731 24.4523 18.0152 27.3997 21.7663 29.2487C18.1457 28.129 14.4979 28.2494 11.0367 29.4017C10.0582 29.7343 8.78954 30.1069 8 30.1601C8.78954 30.2067 10.0582 30.5859 11.0367 30.9119C14.7569 32.1503 18.6136 32.1911 22.4614 30.8254C20.6638 31.8223 19.3094 33.2469 18.3922 35.0699C18.1291 35.6021 17.7647 36.2674 17.4677 36.6C17.8051 36.3073 18.48 35.948 19.0198 35.6886C21.845 34.3126 23.6677 31.6664 23.9933 30.1668C24 30.16 24 30.16 24 30.16C24 30.16 24 30.16 24.0067 30.1667C24.5525 32.051 26.2936 34.3768 28.9869 35.6885C29.5268 35.948 30.1949 36.3072 30.539 36.5999C30.2421 36.2673 29.8777 35.602 29.6145 35.0698C28.7777 33.4066 27.5023 31.9762 25.8828 31.0182C25.768 30.9517 25.6533 30.8852 25.5453 30.8253C29.4355 32.2061 33.2958 32.1354 36.9633 30.9118C37.9485 30.5858 39.2172 30.2066 40 30.16C39.2172 30.1068 37.9485 29.7343 36.9633 29.4016C33.4053 28.2145 29.8336 28.1589 26.2202 29.2553Z" fill="#91F58E"/>
</svg>
